<svg width="180" height="180" fill="none" xmlns="http://www.w3.org/2000/svg"><path d="M78.75 110.833V140c0 5.517-5.044 10-11.25 10H30c-6.206 0-11.25-4.483-11.25-10V40c0-5.517 5.044-10 11.25-10h37.5c6.206 0 11.25 4.483 11.25 10v29.167M101.25 69.167V40c0-5.517 5.044-10 11.25-10H150c6.206 0 11.25 4.483 11.25 10v100c0 5.517-5.044 10-11.25 10h-37.5c-6.206 0-11.25-4.483-11.25-10v-29.167M18.75 126.665h60M103.125 126.665h56.25M101.25 51.665h60M46.875 90h86.25" stroke="#F90" stroke-width="8" stroke-miterlimit="10" stroke-linecap="round"/><path d="M120 103.333 135 90l-15-13.334M60 76.666 45 90l15 13.333" stroke="#F90" stroke-width="8" stroke-miterlimit="10" stroke-linecap="round" stroke-linejoin="round"/></svg>